<svg width="53" height="20" viewBox="0 0 53 20" fill="none" xmlns="http://www.w3.org/2000/svg">
<path
    d="M3.114 9.25L1.566 10.15V8.35L3.114 7.45V5.65L4.68 4.75V8.35C4.68 8.026 4.752 7.69 4.896 7.342C5.04 6.982 5.226 6.652 5.454 6.352C5.694 6.04 5.952 5.806 6.228 5.65L7.794 4.75V6.55L4.68 8.35V15.19L7.794 13.39V15.19L4.68 16.99C4.26 17.23 3.894 17.26 3.582 17.08C3.27 16.9 3.114 16.57 3.114 16.09V9.25ZM7.794 13.39L4.68 15.19L3.114 14.29L6.228 12.49L7.794 13.39ZM7.794 4.75L6.228 5.65C5.952 5.806 5.694 6.04 5.454 6.352C5.226 6.652 5.04 6.982 4.896 7.342C4.752 7.69 4.68 8.026 4.68 8.35L3.114 7.45C3.114 7.126 3.186 6.79 3.33 6.442C3.474 6.082 3.666 5.752 3.906 5.452C4.146 5.14 4.404 4.906 4.68 4.75L6.228 3.85L7.794 4.75ZM3.114 7.45L1.566 8.35L0 7.45L1.566 6.55L3.114 7.45ZM3.114 9.25V16.09C3.114 16.57 3.27 16.9 3.582 17.08L2.034 16.18C1.722 16 1.566 15.67 1.566 15.19V8.35L3.114 9.25ZM4.68 4.75L3.114 5.65L1.566 4.75L3.114 3.85L4.68 4.75ZM3.114 5.65V7.45L1.566 6.55V4.75L3.114 5.65ZM1.566 8.35V10.15L0 9.25V7.45L1.566 8.35ZM13.2405 13.75V8.35L10.9005 9.7V7.9L17.1285 4.3V6.1L14.7885 7.45V12.85L17.1285 11.5V13.3L10.9005 16.9V15.1L13.2405 13.75ZM14.0145 4.48C13.7025 4.66 13.4385 4.69 13.2225 4.57C13.0185 4.45 12.9165 4.21 12.9165 3.85C12.9165 3.49 13.0185 3.13 13.2225 2.77C13.4385 2.41 13.7025 2.14 14.0145 1.96C14.3265 1.78 14.5845 1.75 14.7885 1.87C15.0045 1.99 15.1125 2.23 15.1125 2.59C15.1125 2.95 15.0045 3.31 14.7885 3.67C14.5845 4.03 14.3265 4.3 14.0145 4.48ZM13.2405 13.75L10.9005 15.1L9.33455 14.2L11.6745 12.85L13.2405 13.75ZM10.9005 15.1V16.9L9.33455 16V14.2L10.9005 15.1ZM17.1285 11.5L14.7885 12.85L13.2405 11.95L15.5805 10.6L17.1285 11.5ZM13.2405 8.35V13.75L11.6745 12.85V7.45L13.2405 8.35ZM17.1285 4.3L10.9005 7.9L9.33455 7L15.5805 3.4L17.1285 4.3ZM10.9005 7.9V9.7L9.33455 8.8V7L10.9005 7.9ZM14.8065 1.87C14.5905 1.75 14.3265 1.78 14.0145 1.96C13.7025 2.14 13.4385 2.41 13.2225 2.77C13.0185 3.13 12.9165 3.49 12.9165 3.85C12.9165 4.21 13.0245 4.45 13.2405 4.57L11.6745 3.67C11.4705 3.55 11.3685 3.31 11.3685 2.95C11.3685 2.59 11.4705 2.23 11.6745 1.87C11.8785 1.51 12.1425 1.24 12.4665 1.06C12.7785 0.879999 13.0365 0.849999 13.2405 0.969999L14.8065 1.87ZM23.3661 16.72C22.9581 16.96 22.5981 16.99 22.2861 16.81C21.9741 16.63 21.8181 16.3 21.8181 15.82L24.9321 14.02V5.2L26.4801 4.3V11.32C26.4801 11.632 26.4081 11.968 26.2641 12.328C26.1201 12.688 25.9281 13.024 25.6881 13.336C25.4601 13.636 25.2081 13.864 24.9321 14.02C24.9321 14.332 24.8601 14.668 24.7161 15.028C24.5721 15.388 24.3801 15.718 24.1401 16.018C23.9001 16.33 23.6421 16.564 23.3661 16.72ZM20.2521 7.9L21.8181 7V15.82C21.3981 16.06 21.0321 16.09 20.7201 15.91C20.4081 15.73 20.2521 15.4 20.2521 14.92V7.9ZM26.4801 4.3L24.9321 5.2L23.3661 4.3L24.9321 3.4L26.4801 4.3ZM24.9321 5.2V14.02L23.3661 13.12V4.3L24.9321 5.2ZM24.9321 14.02L21.8181 15.82L20.2521 14.92L23.3661 13.12L24.9321 14.02ZM21.8181 15.82C21.8181 16.3 21.9741 16.63 22.2861 16.81L20.7201 15.91C20.4081 15.73 20.2521 15.4 20.2521 14.92L21.8181 15.82ZM21.8181 7L20.2521 7.9L18.6861 7L20.2521 6.1L21.8181 7ZM20.2521 7.9V14.92C20.2521 15.4 20.4081 15.73 20.7201 15.91L19.1541 15.01C18.8421 14.83 18.6861 14.5 18.6861 14.02V7L20.2521 7.9ZM31.1697 14.92L33.4917 13.57V15.37L31.1697 16.72C30.7497 16.96 30.3837 16.99 30.0717 16.81C29.7597 16.63 29.6037 16.3 29.6037 15.82V2.5L31.1697 1.6V14.92ZM31.1697 1.6L29.6037 2.5L28.0377 1.6L29.6037 0.7L31.1697 1.6ZM33.4917 13.57L31.1697 14.92L29.6037 14.02L31.9437 12.67L33.4917 13.57ZM29.6037 2.5V15.82C29.6037 16.3 29.7597 16.63 30.0717 16.81L28.5057 15.91C28.1937 15.73 28.0377 15.4 28.0377 14.92V1.6L29.6037 2.5ZM38.1833 6.28L41.2973 4.48C41.7053 4.24 42.0653 4.21 42.3773 4.39C42.6893 4.57 42.8453 4.9 42.8453 5.38V12.22C42.8453 12.532 42.7733 12.868 42.6293 13.228C42.4853 13.588 42.2933 13.924 42.0533 14.236C41.8253 14.536 41.5733 14.764 41.2973 14.92L38.1833 16.72C37.7633 16.96 37.3973 16.99 37.0853 16.81C36.7733 16.63 36.6173 16.3 36.6173 15.82V8.98C36.6173 8.656 36.6893 8.32 36.8333 7.972C36.9773 7.612 37.1693 7.282 37.4093 6.982C37.6493 6.67 37.9073 6.436 38.1833 6.28ZM38.1833 14.92L41.2973 13.12V6.28L38.1833 8.08V14.92ZM41.2973 6.28V13.12L39.7313 12.22V5.38L41.2973 6.28ZM41.2973 13.12L38.1833 14.92L36.6173 14.02L39.7313 12.22L41.2973 13.12ZM42.3773 4.39C42.0653 4.21 41.7053 4.24 41.2973 4.48L38.1833 6.28C37.9073 6.436 37.6493 6.67 37.4093 6.982C37.1693 7.282 36.9773 7.612 36.8333 7.972C36.6893 8.32 36.6173 8.656 36.6173 8.98V15.82C36.6173 16.3 36.7733 16.63 37.0853 16.81L35.5193 15.91C35.2073 15.73 35.0513 15.4 35.0513 14.92V8.08C35.0513 7.756 35.1233 7.42 35.2673 7.072C35.4113 6.712 35.6033 6.382 35.8433 6.082C36.0833 5.77 36.3413 5.536 36.6173 5.38L39.7313 3.58C40.1513 3.34 40.5173 3.31 40.8293 3.49L42.3773 4.39ZM47.5349 14.38C47.1149 14.62 46.7489 14.65 46.4369 14.47C46.1249 14.29 45.9689 13.96 45.9689 13.48V9.7C45.9689 9.376 46.0409 9.04 46.1849 8.692C46.3289 8.332 46.5209 8.002 46.7609 7.702C47.0009 7.39 47.2589 7.156 47.5349 7L49.0829 6.1C49.5029 5.86 49.8689 5.83 50.1809 6.01C50.4929 6.19 50.6489 6.52 50.6489 7V5.2L52.1969 4.3V14.02C52.1969 14.332 52.1249 14.668 51.9809 15.028C51.8369 15.388 51.6449 15.718 51.4049 16.018C51.1769 16.33 50.9249 16.564 50.6489 16.72L45.9689 19.42V17.62L50.6489 14.92V10.78C50.6489 11.092 50.5769 11.428 50.4329 11.788C50.2889 12.148 50.0969 12.484 49.8569 12.796C49.6169 13.096 49.3589 13.324 49.0829 13.48L47.5349 14.38ZM47.5349 12.58L50.6489 10.78V7L47.5349 8.8V12.58ZM50.6489 10.78V14.92L49.0829 14.02V9.88L50.6489 10.78ZM50.6489 14.92L45.9689 17.62L44.4029 16.72L49.0829 14.02L50.6489 14.92ZM45.9689 17.62V19.42L44.4029 18.52V16.72L45.9689 17.62ZM52.1969 4.3L50.6489 5.2L49.0829 4.3L50.6489 3.4L52.1969 4.3ZM50.6489 5.2V7L49.0829 6.1V4.3L50.6489 5.2ZM50.6489 7V10.78L49.0829 9.88V6.1L50.6489 7ZM50.6489 10.78L47.5349 12.58L45.9689 11.68L49.0829 9.88L50.6489 10.78ZM50.1809 6.01C49.8689 5.83 49.5029 5.86 49.0829 6.1L47.5349 7C47.2589 7.156 47.0009 7.39 46.7609 7.702C46.5209 8.002 46.3289 8.332 46.1849 8.692C46.0409 9.04 45.9689 9.376 45.9689 9.7V13.48C45.9689 13.96 46.1249 14.29 46.4369 14.47L44.8709 13.57C44.5589 13.39 44.4029 13.06 44.4029 12.58V8.8C44.4029 8.476 44.4749 8.14 44.6189 7.792C44.7629 7.432 44.9549 7.102 45.1949 6.802C45.4349 6.49 45.6929 6.256 45.9689 6.1L47.5349 5.2C47.9429 4.96 48.3029 4.93 48.6149 5.11L50.1809 6.01Z"
    class="svg-path"
/>
<style>
  .svg-path {
    fill:rgb(71, 142, 204);
  }


  /* FIXME: 왜 안되지... */
  html[data-theme='dark'] .svg-path {
    fill: #ffffff;
  }
</style>
</svg>
